<svg class="svg-room" viewBox="0 0 205 290" xmlns="http://www.w3.org/2000/svg" preserveAspectRatio="xMidYMid meet"><g class="walls"><path d="M0,6L18,7L16,29L18,31L16,77L18,79L16,80L18,263L15,266L0,266Z" fill="#c6d0c5" stroke="#1a1a1a" stroke-width="1.5"/><path d="M0,192L8,194L14,189L14,123L11,118L0,118Z" fill="#c6d0c5" stroke="#1a1a1a" stroke-width="1.5"/></g><g class="fixtures"><path d="M0,4L20,5L20,78L22,78L22,32L24,38L22,76L26,79L26,289Z" fill="#bdb39c" stroke="#1a1a1a" stroke-width="0.5"/><path d="M0,266L15,266L18,263L16,80L18,79L16,77L18,31L16,29L18,6L0,6Z" fill="#bdb39c" stroke="#1a1a1a" stroke-width="0.5"/><path d="M24,289L24,80L20,80L20,266L0,266Z" fill="#bdb39c" stroke="#1a1a1a" stroke-width="0.5"/><path d="M0,118L11,118L10,120L13,120L12,122L14,123L14,189L12,190L10,188L12,192L8,194L6,192L0,192Z" fill="#bdb39c" stroke="#1a1a1a" stroke-width="0.5"/><path d="M0,152L8,154L8,152L10,152L8,150L8,130L8,124L10,122L7,120L0,122Z" fill="#bdb39c" stroke="#1a1a1a" stroke-width="0.5"/><path d="M0,188L7,188L8,186L10,187L8,185L8,159L10,157L7,156L0,156Z" fill="#bdb39c" stroke="#1a1a1a" stroke-width="0.5"/><path d="M18,289L18,275L16,274L0,274Z" fill="#bdb39c" stroke="#1a1a1a" stroke-width="0.5"/></g><g class="furniture" data-furniture></g></svg>