<svg class="svg-room" viewBox="0 0 382 478" xmlns="http://www.w3.org/2000/svg" preserveAspectRatio="xMidYMid meet"><g class="walls"><rect x="35" y="35" width="312" height="408" fill="#c6d0c5" stroke="#1a1a1a" stroke-width="3"/></g><g class="openings"><line x1="143" y1="35" x2="203" y2="35" stroke="#fff" stroke-width="4"/><path d="M143,35 A60,60 0 0,1 203,95" fill="none" stroke="#1a1a1a" stroke-width="0.7"/><line x1="155" y1="443" x2="245" y2="443" stroke="#fff" stroke-width="4"/><path d="M155,443 A90,90 0 0,0 245,353" fill="none" stroke="#1a1a1a" stroke-width="0.7"/><line x1="65" y1="443" x2="125" y2="443" stroke="#fff" stroke-width="6"/><line x1="65" y1="440" x2="125" y2="440" stroke="#1a1a1a" stroke-width="1.5"/><line x1="65" y1="446" x2="125" y2="446" stroke="#1a1a1a" stroke-width="1.5"/><line x1="257" y1="443" x2="317" y2="443" stroke="#fff" stroke-width="6"/><line x1="257" y1="440" x2="317" y2="440" stroke="#1a1a1a" stroke-width="1.5"/><line x1="257" y1="446" x2="317" y2="446" stroke="#1a1a1a" stroke-width="1.5"/></g><g class="dims" font-family="JetBrains Mono,monospace" font-size="11" fill="#6b6253"><text x="191" y="23" text-anchor="middle">5.2 m</text><text x="23" y="239" text-anchor="middle" transform="rotate(-90 23 239)">6.8 m</text></g><g class="labels"><text x="191" y="239" text-anchor="middle" font-family="Cormorant Garamond,serif" font-size="22" fill="#1a1a1a" font-weight="500" style="paint-order:stroke;stroke:#fffffff0;stroke-width:3">Lounge</text></g><g class="furniture"></g></svg>